<svg width="32" height="32" viewBox="0 0 32 32" fill="none" xmlns="http://www.w3.org/2000/svg">
  <!-- Background circle -->
  <circle cx="16" cy="16" r="15" fill="#4F46E5" fill-opacity="0.1"/>
  
  <!-- Main repair tool icon - simplified wrench/spanner for favicon -->
  <g transform="translate(6, 6)">
    <!-- Wrench body -->
    <path
      d="M2 2 L6 6 L8 4 L4 0 C3.5 0 2.5 0 2 0.5 L0 2 C-0.5 2.5 -0.5 3.5 0 4 L4 8 L6 6 L2 2 Z"
      fill="#4F46E5"
      stroke="#4F46E5"
      strokeWidth="0.5"
    />
    
    <!-- Wrench head -->
    <path
      d="M6 0 L8 2 L10 0 L8 0 C7.5 0 6.5 0 6 0.5 L6 2 Z"
      fill="#6366F1"
    />
    
    <!-- Repair spark/circuit lines -->
    <path
      d="M10 2 L12 0 M12 4 L14 2 M14 6 L16 4"
      stroke="#818CF8"
      strokeWidth="1.5"
      strokeLinecap="round"
    />
    
    <!-- Central gear/cog -->
    <circle cx="8" cy="8" r="2.5" fill="none" stroke="#4F46E5" strokeWidth="1.5"/>
    <circle cx="8" cy="8" r="1" fill="#4F46E5"/>
    
    <!-- Gear teeth -->
    <path
      d="M8 5.5 L8 4.5 M8 11.5 L8 10.5 M5.5 8 L4.5 8 M11.5 8 L10.5 8 M6.5 6.5 L5.5 5.5 M9.5 9.5 L10.5 10.5 M9.5 6.5 L10.5 5.5 M6.5 9.5 L5.5 10.5"
      stroke="#4F46E5"
      strokeWidth="1"
      strokeLinecap="round"
    />
  </g>
  
  <!-- "R" letter integration -->
  <text
    x="20"
    y="22"
    font-family="Arial Black, sans-serif"
    font-size="10"
    font-weight="900"
    fill="#1E293B"
  >
    R
  </text>
</svg>
